<?xml version="1.0" encoding="UTF-8"?>
<svg width="83px" height="47px" viewBox="0 0 83 47" version="1.1" xmlns="http://www.w3.org/2000/svg" xmlns:xlink="http://www.w3.org/1999/xlink">
    <!-- Generator: Sketch 48.2 (47327) - http://www.bohemiancoding.com/sketch -->
    <title>Group</title>
    <desc>Created with Sketch.</desc>
    <defs></defs>
    <g id="Page-1" stroke="none" stroke-width="1" fill="none" fill-rule="evenodd">
        <g id="Group" fill="#4848F0">
            <path d="M16.1016016,9.81591797 C17.3548631,10.5239293 18.3721055,11.504551 19.1533594,12.7578125 L19.1533594,0.0625 L26.2090235,0.0625 L26.2090235,36 L19.4463282,36 L19.4463282,32.3134766 C18.4534847,33.8922605 17.3223111,35.03971 16.0527735,35.7558594 C14.7832359,36.4720088 13.2044756,36.8300781 11.3164454,36.8300781 C8.20770585,36.8300781 5.59135831,35.5727665 3.46732426,33.0581055 C1.3432902,30.5434445 0.281289101,27.3167515 0.281289101,23.3779297 C0.281289101,18.8368914 1.32701432,15.2643359 3.41849613,12.6601562 C5.50997794,10.0559766 8.30536015,8.75390625 11.8047266,8.75390625 C13.4160628,8.75390625 14.8483401,9.10790662 16.1016016,9.81591797 Z M17.810586,28.7734375 C18.8359817,27.3085864 19.3486719,25.4124465 19.3486719,23.0849609 C19.3486719,19.8297363 18.52674,17.5022856 16.8828516,16.1025391 C15.873732,15.2561807 14.7018687,14.8330078 13.3672266,14.8330078 C11.3327112,14.8330078 9.83939933,15.6020431 8.88724613,17.1401367 C7.93509293,18.6782303 7.45902348,20.5865771 7.45902348,22.8652344 C7.45902348,25.322929 7.94323087,27.2882413 8.91166019,28.7612305 C9.88008952,30.2342196 11.3489876,30.9707031 13.3183985,30.9707031 C15.2878094,30.9707031 16.7851902,30.2382886 17.810586,28.7734375 Z M44.3349805,9.29078543 C44.4244992,9.29877003 44.6238787,9.31074675 44.933125,9.32671595 L44.933125,16.3211906 C44.4936697,16.273283 44.1030486,16.2413451 43.76125,16.2253759 C43.4194514,16.2094067 43.1427615,16.2014222 42.9311719,16.2014222 C40.1316787,16.2014222 38.2518147,17.095684 37.2915235,18.8842344 C36.7544114,19.890294 36.4858594,21.4392832 36.4858594,23.5312484 L36.4858594,36.0111158 L29.4790235,36.0111158 L29.4790235,9.90160428 L36.1196485,9.90160428 L36.1196485,14.4528035 C37.1938726,12.7121607 38.1297356,11.5224732 38.9272656,10.8837052 C40.2293555,9.81376877 41.9220469,9.27880859 44.0053906,9.27880859 C44.1355996,9.27880859 44.2454618,9.28280083 44.3349805,9.29078543 Z M73.8730273,17.25 C72.9371502,15.6712161 71.4194245,14.8818359 69.3198047,14.8818359 C66.7970056,14.8818359 65.0636245,16.078113 64.1196094,18.4707031 C63.6313257,19.7402407 63.3871875,21.3515527 63.3871875,23.3046875 C63.3871875,26.3971509 64.2091194,28.5699807 65.8530078,29.8232422 C66.8295752,30.5556677 67.9851626,30.921875 69.3198047,30.921875 C71.2566633,30.921875 72.7336993,30.1731846 73.750957,28.6757812 C74.7682147,27.1783779 75.2768359,25.1845828 75.2768359,22.6943359 C75.2768359,20.6435444 74.8089044,18.8287839 73.8730273,17.25 Z M79.219707,12.2451172 C81.3762933,14.5400505 82.4545703,17.9091575 82.4545703,22.3525391 C82.4545703,27.0400625 81.4007071,30.6126179 79.2929492,33.0703125 C77.1851913,35.5280071 74.4711885,36.7568359 71.1508594,36.7568359 C69.0349634,36.7568359 67.2771684,36.2278699 65.8774219,35.1699219 C65.1124441,34.5839814 64.3637536,33.7294978 63.6313281,32.6064453 L63.6313281,46.4736328 L56.7465625,46.4736328 L56.7465625,9.38867188 L63.4116015,9.38867188 L63.4116015,13.3193359 C64.1603032,12.1637312 64.9578213,11.252282 65.8041797,10.5849609 C67.3504114,9.39680396 69.1895857,8.80273438 71.3217578,8.80273438 C74.4304973,8.80273438 77.0631207,9.95018384 79.219707,12.2451172 Z" id="dr-p"></path>
            <polygon id="i" transform="translate(50.610192, 22.663724) rotate(-180.000000) translate(-50.610192, -22.663724) " points="47.0823599 9.35805961 54.138024 9.35805961 54.138024 35.9693877 47.0823599 35.9693877"></polygon>
            <path d="M50.9694872,37.0884039 L50.8170589,36.8706492 C50.7081816,36.7399964 50.4904268,36.7399964 50.3815495,36.8706492 L50.2291211,37.0884039 C50.0984683,37.2408322 47.3329832,40.8991117 47.3329832,43.2508628 C47.3329832,45.0146761 48.7701645,46.4736328 50.5557532,46.4736328 L50.6646306,46.4736328 C52.4284439,46.4736328 53.8874006,45.0364516 53.8874006,43.2508628 C53.8656251,40.8991117 51.1001401,37.2626077 50.9694872,37.0884039 Z" id="Shape" fill-rule="nonzero" transform="translate(50.610192, 41.623146) rotate(-360.000000) translate(-50.610192, -41.623146) "></path>
        </g>
    </g>
</svg>